<svg id="Capa_1" enable-background="new 0 0 512 512" height="512" viewBox="0 0 512 512" width="512" xmlns="http://www.w3.org/2000/svg"><g><path d="m181 105c0-41.4 33.6-75 75-75s75 33.6 75 75v46h30v-46c0-57.9-47.1-105-105-105s-105 47.1-105 105v46h30z"/><path d="m469.23 291.874-58.689 39.126h-79.541v30h-150v-30h-79.541l-58.689-39.122-36.969 95.914c-3.853 10.283-5.801 21.05-5.801 32.021 0 50.274 40.913 92.187 91.187 92.187h329.627c50.273 0 91.186-41.913 91.186-92.187 0-10.972-1.948-21.738-5.801-32.021z"/><path d="m181 301v-30h150v30h70.499l57.001-38.101-42.001-111.899h-55.499v60h-30v-60h-150v60h-30v-60h-55.499l-42.001 111.899 57.001 38.101z"/><path d="m211 301h90v30h-90z"/></g></svg>