<?xml version="1.0" encoding="iso-8859-1"?>
<!-- Generator: Adobe Illustrator 17.1.0, SVG Export Plug-In . SVG Version: 6.00 Build 0)  -->
<!DOCTYPE svg PUBLIC "-//W3C//DTD SVG 1.1//EN" "http://www.w3.org/Graphics/SVG/1.1/DTD/svg11.dtd">
<svg version="1.1" id="Capa_1" xmlns="http://www.w3.org/2000/svg" xmlns:xlink="http://www.w3.org/1999/xlink" x="0px" y="0px"
	 viewBox="0 0 454.258 454.258" style="enable-background:new 0 0 454.258 454.258;" xml:space="preserve">
<g>
	<path d="M450.003,285.589l-2.341-3.443l-1.938,3.685c-12.648,24.029-54.696,38.389-88.041,38.389
		c-42.46,0-252.092-6.381-279.383-7.935c-5.395-0.32-11.03-0.469-17.735-0.469c-4.159,0-8.021,0.052-11.756,0.101
		c-3.244,0.043-6.305,0.084-9.181,0.084c-8.974,0-16.353-2.401-21.74-4.155c-3.491-1.136-6.249-2.033-8.533-2.033
		c-1.761,0-3.188,0.542-4.241,1.612c-1.379,1.399-1.998,3.572-1.949,6.838c0.418,28.253,15.377,30.437,36.464,30.437
		c2.896,0,5.979-0.041,9.247-0.084c3.718-0.05,7.563-0.101,11.689-0.101c6.604,0,12.146,0.146,17.445,0.46
		c27.324,1.556,237.17,7.943,279.673,7.943c21.573,0,45.421-5.729,63.792-15.322c21.141-11.041,32.783-25.898,32.783-41.836
		C454.258,294.509,452.826,289.74,450.003,285.589z"/>
	<path d="M36.795,302.434c2.875,0,5.933-0.041,9.176-0.084c3.689-0.05,7.505-0.101,11.599-0.101c6.565,0,12.062,0.146,17.308,0.46
		c27.109,1.556,235.325,7.942,277.504,7.942c21.412,0,45.08-5.729,63.313-15.326c20.979-11.042,32.532-25.898,32.532-41.832
		c0-23.11-26.366-30.573-54.281-38.476c-15.22-4.308-30.958-8.763-44.257-15.892c-5.99-3.218-15.123-7.882-26.253-13.456
		c0.018-0.322,0.049-0.642,0.049-0.968c0-9.515-7.74-17.255-17.255-17.255c-4.271,0-8.176,1.568-11.192,4.148
		c-4.031-1.982-8.164-4.01-12.368-6.069c-0.376-9.184-7.944-16.545-17.219-16.545c-3.746,0-7.207,1.213-10.038,3.249
		c-3.77-1.833-7.546-3.667-11.311-5.494c0.08-0.672,0.133-1.352,0.133-2.045c0-9.514-7.74-17.254-17.254-17.254
		c-4.775,0-9.101,1.951-12.228,5.095c-36.779-17.76-66.932-32.185-69.634-33.477c-1.646-1.123-3.481-1.716-5.323-1.716
		c-2.97,0-5.825,1.444-7.64,3.868l-20.316,27.244c-2.722,3.687-3.791,7.403-3.178,11.048c1.214,7.222,8.664,12.338,14.65,16.448
		c2.383,1.637,5.927,4.07,6.496,5.251c-0.008,0.008-0.017,0.017-0.025,0.025c-3.311,3.237-13.938,8.055-29.648,8.055
		c-9.081,0-18.65-1.735-27.673-5.02c-11.041-4.02-15.603-15.05-19.268-23.913c-3.065-7.413-5.713-13.814-11.596-13.814
		c-4.463,0-9.627,4.004-17.293,13.42c-26.057,33.12-24.839,83.725-23.949,120.675c0.095,3.957,0.187,7.76,0.24,11.369
		C1.01,300.251,15.86,302.434,36.795,302.434z M255.188,199.765c0,0,3.342-3.308,7.473-2.071c3.595,1.076,12.096,3.366,17.297,4.658
		c4.447,1.105,0.432,4.601,0.432,4.601l-67.519,61.801c-0.054,0.039-2.8,2.544-6.967,2.544c-6.727,0-19.768-0.051-25.082-0.051
		c-4.417,0-0.752-3.727-0.752-3.727S255.179,199.765,255.188,199.765z M203.778,185.178c0.018-0.016,5.211-5.138,11.464-3.159
		c3.17,1.003,10.61,2.85,15.355,4.178c4.058,1.135-0.245,5.321-0.247,5.325l-83.579,75.775c-0.058,0.043-1.991,3.536-8.505,3.536
		c-7.351,0-21.378,0.336-27.117,0.336c-3.244,0-0.36-3.489-0.363-3.487L203.778,185.178z"/>
</g>
<g>
</g>
<g>
</g>
<g>
</g>
<g>
</g>
<g>
</g>
<g>
</g>
<g>
</g>
<g>
</g>
<g>
</g>
<g>
</g>
<g>
</g>
<g>
</g>
<g>
</g>
<g>
</g>
<g>
</g>
</svg>
